<svg width="72" height="72" viewBox="0 0 72 72" fill="none" xmlns="http://www.w3.org/2000/svg">
<g clip-path="url(#clip0_14_45)">
<path d="M61.2 0H10.8C4.83532 0 0 4.83532 0 10.8V61.2C0 67.1647 4.83532 72 10.8 72H61.2C67.1647 72 72 67.1647 72 61.2V10.8C72 4.83532 67.1647 0 61.2 0Z" fill="#1877F2"/>
<path d="M50.0063 46.4062L51.6094 36H41.625V29.25C41.625 26.4094 43.0172 23.625 47.4891 23.625H52.0312V14.7656C52.0312 14.7656 47.9109 14.0625 43.9734 14.0625C35.7469 14.0625 30.375 19.0406 30.375 28.0688V36H21.2344V46.4062H30.375V72H41.625V46.4062H50.0063Z" fill="white"/>
</g>
<defs>
<clipPath id="clip0_14_45">
<rect width="72" height="72" fill="white"/>
</clipPath>
</defs>
</svg>
