<svg width="72" height="72" viewBox="0 0 72 72" fill="none" xmlns="http://www.w3.org/2000/svg">
<g clip-path="url(#clip0_14_2)">
<path fill-rule="evenodd" clip-rule="evenodd" d="M31.5732 3.07515C53.1541 0.308362 71.6916 18.5692 68.9248 40.4268C66.9881 55.0908 55.0909 67.2647 40.4269 68.9248C18.8459 71.6916 0.308429 53.4307 3.07522 31.5731C5.01197 16.9091 16.9092 5.01191 31.5732 3.07515Z" fill="#ECF0F1"/>
<path d="M26.8696 67.2647V56.4742C25.2095 56.7509 24.1028 56.7509 23.5494 56.7509C20.2293 56.7509 17.7392 55.0908 16.3558 52.0473C15.8024 50.9406 15.2491 49.8339 14.6957 49.0039C14.419 48.7272 14.1423 48.4505 13.589 48.1738C13.0356 47.6205 12.7589 47.3438 12.2056 47.0671C11.6522 46.7904 11.6522 46.5138 11.6522 46.2371C11.6522 45.9604 12.2056 45.6837 13.0356 45.6837C14.9724 45.6837 16.3558 46.7904 17.1858 47.8972C18.0158 49.2806 19.1226 50.664 20.506 51.494C21.336 52.0473 22.166 52.324 22.9961 52.324C24.3795 52.324 25.4862 52.0473 26.8696 51.7707C27.4229 50.1106 28.253 48.4505 29.913 47.6205C19.6759 46.5138 14.6957 42.9169 14.6957 33.2332C14.6957 29.6363 15.8024 26.3162 18.0158 23.8261C17.4625 22.4427 17.4625 21.336 17.4625 19.9526C17.4625 18.0158 18.0158 16.3557 18.8459 14.9724C22.4427 14.9724 24.6561 16.0791 28.253 18.8459C30.7431 18.2925 33.2332 18.0158 36.2767 18.0158C38.7668 18.0158 41.2569 18.2925 43.4703 18.8459C47.0671 16.3557 49.2806 15.249 52.8774 15.249C53.7074 16.9091 54.2608 18.5692 54.2608 20.2293C54.2608 21.6127 53.9841 22.7194 53.7074 24.1028C55.9209 26.5929 57.0276 29.6363 57.0276 33.5099C57.0276 43.1936 52.0474 47.0671 41.8102 47.8972C44.0237 49.2806 45.1304 51.494 45.1304 53.9841V67.2647H26.8696Z" fill="#9B59B6"/>
<path d="M31.2965 0.308399C15.2491 2.24515 2.24515 15.2491 0.308399 31.2965C-2.73507 54.8142 17.1858 74.7351 40.7035 71.6916C56.7509 69.7548 69.7548 56.7509 71.6916 40.7035C74.7351 17.1858 54.8142 -2.73507 31.2965 0.308399ZM65.8813 41.2569C63.9446 53.9841 53.7075 63.9446 40.9802 66.158C20.2293 69.4782 2.52183 51.7707 5.84198 31.0198C7.77874 18.2925 18.0159 8.33209 30.7431 6.11866C51.7707 2.52183 69.4782 20.2293 65.8813 41.2569Z" fill="#9B59B6"/>
</g>
<defs>
<clipPath id="clip0_14_2">
<rect width="72" height="72" fill="white"/>
</clipPath>
</defs>
</svg>
