<svg width="72" height="72" viewBox="0 0 72 72" fill="none" xmlns="http://www.w3.org/2000/svg">
<g clip-path="url(#clip0_14_41)">
<path fill-rule="evenodd" clip-rule="evenodd" d="M36 72C55.8823 72 72 55.8823 72 36C72 16.1177 55.8823 0 36 0C16.1177 0 0 16.1177 0 36C0 55.8823 16.1177 72 36 72Z" fill="#007EBB"/>
<path fill-rule="evenodd" clip-rule="evenodd" d="M59 57H49.9594V41.6018C49.9594 37.38 48.3552 35.0208 45.0137 35.0208C41.3785 35.0208 39.4793 37.4759 39.4793 41.6018V57H30.7667V27.6667H39.4793V31.6179C39.4793 31.6179 42.099 26.7705 48.3237 26.7705C54.5456 26.7705 59 30.5699 59 38.4279V57ZM20.3725 23.8257C17.4048 23.8257 15 21.402 15 18.4129C15 15.4237 17.4048 13 20.3725 13C23.3402 13 25.7436 15.4237 25.7436 18.4129C25.7436 21.402 23.3402 23.8257 20.3725 23.8257ZM15.8737 57H24.9587V27.6667H15.8737V57Z" fill="white"/>
</g>
<defs>
<clipPath id="clip0_14_41">
<rect width="72" height="72" fill="white"/>
</clipPath>
</defs>
</svg>
