<svg width="72" height="72" viewBox="0 0 72 72" fill="none" xmlns="http://www.w3.org/2000/svg">
<g clip-path="url(#clip0_14_48)">
<path fill-rule="evenodd" clip-rule="evenodd" d="M5.75242 55.1293C2.11453 49.5057 0 42.8021 0 35.6097C0 15.7415 16.1318 -0.39032 36 -0.39032C55.8682 -0.39032 72 15.7415 72 35.6097C72 55.4779 55.8682 71.6097 36 71.6097C29.2661 71.6097 22.9642 69.7566 17.5718 66.5356L0 72.3903L5.75242 55.1293Z" fill="#F3F3F3"/>
<path fill-rule="evenodd" clip-rule="evenodd" d="M12.4863 52.3098C9.12884 47.5957 7.15453 41.832 7.15453 35.6096C7.15453 19.6901 20.0804 6.76416 36 6.76416C51.9196 6.76416 64.8455 19.6901 64.8455 35.6096C64.8455 51.5292 51.9196 64.4513 36 64.4513C29.9747 64.4513 24.3815 62.6021 19.7507 59.4378L8.90526 63.053L12.4863 52.3098Z" fill="#00A82D"/>
<path fill-rule="evenodd" clip-rule="evenodd" d="M27.3373 43.0977C23.0779 37.891 20.2358 31.5171 19.3453 24.6051C19.1065 22.68 19.7469 20.7474 21.0922 19.3491C22.4375 17.9508 24.3436 17.2346 26.2762 17.3975L26.4619 17.4165C26.4619 17.4165 28.5878 17.9849 29.7512 18.2994C30.2135 18.4245 30.581 18.7693 30.7364 19.2202C31.2594 20.7739 32.4947 24.4232 33.0783 26.1398C33.2678 26.6969 33.0935 27.3146 32.6463 27.6935C31.7634 28.4362 30.3044 29.664 29.3949 30.4333C28.9061 30.8463 28.7507 31.5322 29.016 32.112C30.0733 34.416 31.4223 36.5685 33.0215 38.5162C34.6661 40.4186 36.5571 42.1125 38.6488 43.5449C39.1794 43.9049 39.8804 43.867 40.3693 43.4539C41.2825 42.6885 42.7415 41.4607 43.6206 40.7179C44.0716 40.339 44.7082 40.2746 45.2274 40.555C46.8189 41.419 50.2067 43.2531 51.6467 44.0337C52.0674 44.2611 52.3478 44.6855 52.3895 45.1592C52.4994 46.3605 52.704 48.5508 52.704 48.5508L52.6888 48.7365C52.5221 50.6691 51.4952 52.4274 49.8884 53.515C48.2817 54.6063 46.2695 54.9095 44.4126 54.3487C37.6977 52.2834 31.8581 48.3575 27.4396 43.219L27.3373 43.0977Z" fill="#F3F3F3"/>
</g>
<defs>
<clipPath id="clip0_14_48">
<rect width="72" height="72" fill="white"/>
</clipPath>
</defs>
</svg>
