<svg width="100" height="100" viewBox="0 0 100 100" fill="none" xmlns="http://www.w3.org/2000/svg">
<g filter="url(#filter0_d_1_2)">
<path d="M52.276 90C50.356 90 48.4573 89.4453 46.58 88.336C44.7453 87.2693 42.3987 85.6053 39.54 83.344C37.4067 81.6373 35.572 80.2507 34.036 79.184C32.5427 78.16 30.9 77.2853 29.108 76.56C27.3587 75.8347 25.5667 75.472 23.732 75.472C23.092 75.472 22.6013 75.4933 22.26 75.536L31.796 31.184C28.9373 32.336 26.7187 34.1067 25.14 36.496C23.604 38.8427 22.836 41.7227 22.836 45.136C22.836 46.7147 22.9853 47.824 23.284 48.464C23.5827 49.0613 23.732 49.4027 23.732 49.488C21.428 49.488 19.7 49.0187 18.548 48.08C17.4387 47.0987 16.884 45.4987 16.884 43.28C16.884 40.5493 17.9933 37.904 20.212 35.344C22.4733 32.7413 25.3533 30.6507 28.852 29.072C32.3507 27.4507 35.8493 26.64 39.348 26.64C39.9453 26.64 40.7987 26.6827 41.908 26.768L32.052 72.72C33.2467 73.0187 34.4627 73.4453 35.7 74C36.98 74.5973 38.516 75.3867 40.308 76.368C43.0813 77.8613 45.4493 78.992 47.412 79.76C49.3747 80.5707 51.4227 80.976 53.556 80.976C55.476 80.976 57.268 80.6347 58.932 79.952C58.5907 83.0667 57.8227 85.52 56.628 87.312C55.476 89.104 54.0253 90 52.276 90ZM54.702 81.296C53.1233 81.296 51.7367 81.168 50.542 80.912C49.3473 80.656 48.302 80.0373 47.406 79.056C46.5527 78.0747 46.126 76.56 46.126 74.512C46.126 71.6533 46.9793 67.8133 48.686 62.992C50.4353 58.1707 52.718 53.328 55.534 48.464C53.4007 48.592 51.7153 48.912 50.478 49.424C49.2407 49.936 48.43 50.7253 48.046 51.792C48.2167 51.792 48.3873 52.0053 48.558 52.432C48.7713 52.8587 48.878 53.3067 48.878 53.776C48.878 54.544 48.5367 55.1627 47.854 55.632C47.1713 56.0587 46.318 56.272 45.294 56.272C44.0993 56.272 43.1393 55.952 42.414 55.312C41.6887 54.672 41.326 53.7547 41.326 52.56C41.326 51.1093 41.8807 49.7867 42.99 48.592C44.142 47.3973 45.7207 46.4587 47.726 45.776C49.7313 45.0507 51.95 44.688 54.382 44.688C55.278 44.688 56.3873 44.752 57.71 44.88C61.2087 39.3333 64.8993 34.8107 68.782 31.312C72.7073 27.7707 76.4407 26 79.982 26C82.03 26 83.7153 26.2987 85.038 26.896L74.99 74H65.774L70.702 50.768C69.1233 50.0427 67.6727 49.5093 66.35 49.168C65.0273 48.8267 63.6193 48.592 62.126 48.464C59.694 53.712 57.6887 59.088 56.11 64.592C54.574 70.0533 53.806 74.4267 53.806 77.712C53.806 79.3333 54.1047 80.528 54.702 81.296ZM74.99 30.544C73.1553 31.5253 71.2353 33.36 69.23 36.048C67.2673 38.6933 65.3473 41.9147 63.47 45.712C66.542 46.3093 69.1447 47.056 71.278 47.952L74.99 30.544Z" fill="url(#paint0_linear_1_2)"/>
</g>
<defs>
<filter id="filter0_d_1_2" x="12.884" y="26" width="76.154" height="72" filterUnits="userSpaceOnUse" color-interpolation-filters="sRGB">
<feFlood flood-opacity="0" result="BackgroundImageFix"/>
<feColorMatrix in="SourceAlpha" type="matrix" values="0 0 0 0 0 0 0 0 0 0 0 0 0 0 0 0 0 0 127 0" result="hardAlpha"/>
<feOffset dy="4"/>
<feGaussianBlur stdDeviation="2"/>
<feComposite in2="hardAlpha" operator="out"/>
<feColorMatrix type="matrix" values="0 0 0 0 0 0 0 0 0 0 0 0 0 0 0 0 0 0 0.25 0"/>
<feBlend mode="normal" in2="BackgroundImageFix" result="effect1_dropShadow_1_2"/>
<feBlend mode="normal" in="SourceGraphic" in2="effect1_dropShadow_1_2" result="shape"/>
</filter>
<linearGradient id="paint0_linear_1_2" x1="83.5" y1="56.6408" x2="16.5" y2="56.6408" gradientUnits="userSpaceOnUse">
<stop stop-color="#8416F2"/>
<stop offset="0.3" stop-color="#5039F7"/>
<stop offset="0.6" stop-color="#364BF9"/>
<stop offset="1" stop-color="#1C5CFB"/>
</linearGradient>
</defs>
</svg>
